<svg xmlns="http://www.w3.org/2000/svg" xmlns:xlink="http://www.w3.org/1999/xlink" version="1.1" x="0px" y="0px" viewBox="0 0 19 19" xml:space="preserve"><g transform="translate(-390 -1640)"><g xmlns="http://www.w3.org/2000/svg" xmlns:xlink="http://www.w3.org/1999/xlink"><path d="M399.5,1640c-4.143,0-7.5,1.343-7.5,3v11c0,1.104,0.895,2,2,2h11c1.104,0,2-0.896,2-2v-11    C407,1641.343,403.643,1640,399.5,1640z M395.5,1654c-0.828,0-1.5-0.671-1.5-1.5c0-0.828,0.672-1.5,1.5-1.5    c0.828,0,1.5,0.672,1.5,1.5C397,1653.329,396.328,1654,395.5,1654z M403.5,1654c-0.828,0-1.5-0.671-1.5-1.5    c0-0.828,0.672-1.5,1.5-1.5c0.828,0,1.5,0.672,1.5,1.5C405,1653.329,404.328,1654,403.5,1654z M406,1649c0,0.553-0.447,1-1,1h-11    c-0.553,0-1-0.447-1-1v-4c0-0.552,0.447-1,1-1h11c0.553,0,1,0.448,1,1V1649z"/><polygon points="393,1660 396,1660 397,1657 395,1657   "/><polygon points="402,1657 403,1660 406,1660 404,1657   "/></g></g></svg>