<svg xmlns="http://www.w3.org/2000/svg" data-name="Layer 1" viewBox="0 0 32 32" id="magic-wand-tool"><path fill="#fdd331" d="M8.687 7C5.98 7.541 5.541 7.98 5 10.687 4.459 7.98 4.02 7.541 1.313 7 4.02 6.459 4.459 6.02 5 3.313 5.541 6.02 5.98 6.459 8.687 7zM20.607 6.607c-2.3-1.531-2.917-1.531-5.214 0 1.531-2.3 1.531-2.917 0-5.214 2.3 1.531 2.917 1.531 5.214 0C19.076 3.69 19.076 4.31 20.607 6.607zM8.607 22.607c-2.3-1.531-2.917-1.531-5.214 0 1.531-2.3 1.531-2.917 0-5.214 2.3 1.531 2.917 1.531 5.214 0C7.076 19.69 7.076 20.31 8.607 22.607zM27.321 14.321c-2.044-1.363-2.6-1.363-4.641 0 1.363-2.044 1.363-2.6 0-4.641 2.044 1.363 2.6 1.363 4.641 0C25.958 11.724 25.958 12.276 27.321 14.321z"></path><rect width="5" height="26" x="18.5" y="8" fill="#575854" rx="2" ry="2" transform="rotate(-45 21 21)"></rect><path fill="#afaeb3" d="M13.075,11.075h1a2,2,0,0,1,2,2v3a0,0,0,0,1,0,0h-5a0,0,0,0,1,0,0v-3A2,2,0,0,1,13.075,11.075Z" transform="rotate(-45 13.575 13.575)"></path></svg>